<svg width="56" height="53" viewBox="0 0 56 53" fill="none" xmlns="http://www.w3.org/2000/svg">
<path d="M6.0716 19.1122L0.712808 28.3978C0.318218 29.0788 0 28.9897 0 28.2068V0.381862C0 0.171838 0.171838 0 0.381862 0H55.6181C55.8282 0 56 0.171838 56 0.381862V6.01432C56 6.0716 55.9745 6.15434 55.9491 6.20525L48.3691 19.3349C48.0509 19.8823 47.7327 19.8123 47.6563 19.1885L46.7462 11.6213C46.7271 11.4686 46.5935 11.3222 46.4407 11.2904L39.9364 9.96022C39.79 9.9284 39.6054 10.0111 39.529 10.1448L31.6372 23.8154C31.319 24.3628 31.0008 24.2928 30.9244 23.6691L30.0143 16.1018C29.9952 15.9491 29.8616 15.8027 29.7088 15.7709L23.2045 14.4407C23.0581 14.4089 22.8735 14.4916 22.7971 14.6253L14.9053 28.2959C14.5871 28.8433 14.2689 28.7733 14.1925 28.1496L13.2824 20.5823C13.2633 20.4296 13.1297 20.2832 12.9769 20.2514L6.47255 18.9212C6.32617 18.8894 6.14161 18.9722 6.06523 19.1058L6.0716 19.1122ZM48.401 33.9029L41.8966 32.5728C41.7502 32.541 41.6102 32.3946 41.5911 32.2418L40.681 24.6746C40.6046 24.0509 40.2864 23.9809 39.9682 24.5282L32.0764 38.1989C32 38.3325 31.8154 38.4153 31.6691 38.3835L25.1647 37.0533C25.0183 37.0215 24.8783 36.8751 24.8592 36.7224L23.9491 29.1551C23.8727 28.5314 23.5545 28.4614 23.2363 29.0088L15.3445 42.6794C15.2681 42.813 15.0835 42.8958 14.9372 42.864L8.43278 41.5338C8.2864 41.502 8.14638 41.3556 8.12729 41.2029L7.21718 33.6356C7.14081 33.0119 6.82259 32.9419 6.50438 33.4893L0.0509149 44.6969C0.0254574 44.7478 0 44.8306 0 44.8878V52.1559C0 52.366 0.171838 52.5378 0.381862 52.5378H55.6181C55.8282 52.5378 56 52.366 56 52.1559V22.7017C56 21.9189 55.6818 21.8298 55.2872 22.5107L48.8083 33.7247C48.7319 33.8584 48.5473 33.9411 48.401 33.9093V33.9029Z" fill="#DB8300"/>
</svg>
