<svg fill="none" height="18" viewBox="0 0 20 18" width="20" xmlns="http://www.w3.org/2000/svg">
    <path
        d="M1.89453 17.8945C1.02539 17.8945 0.322266 17.2012 0.322266 16.3418C0.322266 15.9121 0.507812 15.5117 0.820312 15.1895L7.26562 8.93945L0.820312 2.69922C0.498047 2.37695 0.322266 1.97656 0.322266 1.55664C0.322266 0.697266 1.02539 0.00390625 1.89453 0.00390625C2.32422 0.00390625 2.67578 0.150391 2.96875 0.443359L10.3613 7.66992C10.752 8.05078 10.9375 8.46094 10.9375 8.94922C10.9375 9.42773 10.7617 9.82812 10.3613 10.2285L2.96875 17.4551C2.66602 17.748 2.31445 17.8945 1.89453 17.8945ZM10.6152 17.8945C9.74609 17.8945 9.04297 17.2012 9.04297 16.3418C9.04297 15.9121 9.22852 15.5117 9.55078 15.1895L15.9863 8.93945L9.55078 2.69922C9.21875 2.37695 9.04297 1.97656 9.04297 1.55664C9.04297 0.697266 9.74609 0.00390625 10.6152 0.00390625C11.0449 0.00390625 11.3965 0.150391 11.6992 0.443359L19.082 7.66992C19.4824 8.05078 19.6582 8.46094 19.668 8.94922C19.668 9.42773 19.4824 9.82812 19.0918 10.2285L11.6992 17.4551C11.3965 17.748 11.0449 17.8945 10.6152 17.8945Z"
        fill="black" />
</svg>
