<svg width="16" height="16" viewBox="0 0 16 16" fill="none" xmlns="http://www.w3.org/2000/svg">
<g clip-path="url(#clip0_19147_7405)">
<path fill-rule="evenodd" clip-rule="evenodd" d="M7.96824 1.71875L10.073 4.86348L12.1777 8.00893L7.96824 10.1297L3.75879 8.00093L5.86352 4.85548L7.96824 1.71875ZM7.96824 10.9769L3.99224 8.85548L7.96824 14.2831L11.9442 8.85548L7.96824 10.9769Z" fill="#969696"/>
<path fill-rule="evenodd" clip-rule="evenodd" d="M7.96875 1.71875L10.0735 4.85548L12.1782 8.00093L7.96875 6.41184V1.71875Z" fill="#969696"/>
<path fill-rule="evenodd" clip-rule="evenodd" d="M7.96875 10.9769L11.9528 8.85547L7.96875 14.2911V10.9769Z" fill="#969696"/>
<path fill-rule="evenodd" clip-rule="evenodd" d="M7.96875 6.41016L12.1782 7.99925L7.96875 10.12V6.41016Z" fill="#969696"/>
<path fill-rule="evenodd" clip-rule="evenodd" d="M7.96824 1.71875L5.86352 4.85548L3.75879 8.00093L7.96824 6.41184V1.71875Z" fill="#969696"/>
<path fill-rule="evenodd" clip-rule="evenodd" d="M7.96916 10.9769L3.99316 8.85547L7.96916 14.2911V10.9769Z" fill="#969696"/>
<path fill-rule="evenodd" clip-rule="evenodd" d="M7.96824 6.41016L3.75879 7.99925L7.96824 10.12V6.41016Z" fill="#969696"/>
</g>
<defs>
<clipPath id="clip0_19147_7405">
<rect width="16" height="16" fill="white"/>
</clipPath>
</defs>
</svg>
