<svg width="16" height="16" viewBox="0 0 16 16" fill="none" xmlns="http://www.w3.org/2000/svg">
<path d="M3.95016 10.2024C4.02359 10.1322 4.12315 10.0928 4.22694 10.0928H13.8038C13.9783 10.0928 14.0656 10.2947 13.9422 10.4127L12.0498 12.2224C11.9764 12.2926 11.8769 12.332 11.7731 12.332H2.19617C2.02172 12.332 1.93438 12.1301 2.05778 12.0121L3.95016 10.2024Z" fill="#969696"/>
<path d="M3.95016 3.4417C4.02359 3.37147 4.12314 3.33203 4.22694 3.33203H13.8038C13.9783 3.33203 14.0656 3.53394 13.9422 3.65197L12.0498 5.46162C11.9764 5.53183 11.8769 5.57126 11.7731 5.57126H2.19617C2.02172 5.57126 1.93438 5.36936 2.05778 5.25135L3.95016 3.4417Z" fill="#969696"/>
<path d="M12.0498 6.80054C11.9764 6.73033 11.8769 6.69089 11.7731 6.69089H2.19617C2.02172 6.69089 1.93438 6.89279 2.05778 7.0108L3.95016 8.82046C4.02359 8.89068 4.12314 8.93013 4.22694 8.93012H13.8038C13.9783 8.93012 14.0656 8.72822 13.9422 8.61019L12.0498 6.80054Z" fill="#969696"/>
</svg>
