<svg width="28" height="28" viewBox="0 0 28 28" fill="none" xmlns="http://www.w3.org/2000/svg">
<path d="M24.9856 9.77213L14.4856 2.77213C14.3418 2.6762 14.1729 2.625 14 2.625C13.8271 2.625 13.6582 2.6762 13.5144 2.77213L3.01438 9.77213C2.89451 9.8521 2.79625 9.96044 2.72833 10.0875C2.6604 10.2146 2.62491 10.3565 2.625 10.5006V21.8756C2.625 22.3397 2.80937 22.7848 3.13756 23.113C3.46575 23.4412 3.91087 23.6256 4.375 23.6256H23.625C24.0891 23.6256 24.5342 23.4412 24.8624 23.113C25.1906 22.7848 25.375 22.3397 25.375 21.8756V10.5006C25.3751 10.3565 25.3396 10.2146 25.2717 10.0875C25.2037 9.96044 25.1055 9.8521 24.9856 9.77213ZM10.5788 16.6256L4.375 21.0006V12.1992L10.5788 16.6256ZM12.3692 17.5006H15.6308L21.8247 21.8756H6.17531L12.3692 17.5006ZM17.4212 16.6256L23.625 12.1992V21.0006L17.4212 16.6256ZM14 4.55166L22.9589 10.5246L15.6308 15.7506H12.3714L5.04328 10.5246L14 4.55166Z" fill="#DB8300"/>
</svg>
