<svg width="23" height="24" viewBox="0 0 23 24" fill="none" xmlns="http://www.w3.org/2000/svg">
<path d="M22.8667 11.9319C22.8667 11.1046 22.7925 10.3091 22.6546 9.54543H11.6667V14.0583H17.9454C17.675 15.5167 16.8531 16.7523 15.6175 17.5796V20.5069H19.3879C21.594 18.4758 22.8667 15.4848 22.8667 11.9319Z" fill="#DB8300"/>
<path d="M11.6667 23.3333C14.8167 23.3333 17.4576 22.2886 19.3879 20.5069L15.6175 17.5796C14.5728 18.2796 13.2363 18.6932 11.6667 18.6932C8.62797 18.6932 6.05605 16.6409 5.13858 13.8833C3.61643 13.8833 1.24087 13.8833 1.24087 13.8833V16.9061C3.16062 20.719 7.10605 23.3333 11.6667 23.3333Z" fill="#DB8300"/>
<path fill-rule="evenodd" clip-rule="evenodd" d="M5.13858 13.8833H1.24087V16.9061L5.13858 13.8833ZM5.13858 6.42728V9.45L1.24087 6.42728H5.13858Z" fill="#DB8300"/>
<path d="M11.6667 4.64018C13.3794 4.64018 14.9173 5.22877 16.1265 6.38482L19.4727 3.03858C17.4523 1.15605 14.8113 0 11.6667 0C7.10605 0 3.16062 2.61438 1.24087 6.42728L5.13858 9.45C6.05605 6.69247 8.62797 4.64018 11.6667 4.64018Z" fill="#DB8300"/>
<path d="M5.13858 13.8833H1.24087V16.9061C0.450799 15.3311 0 13.5492 0 11.6667C0 9.78413 0.450799 8.00228 1.24087 6.42728L5.13858 9.45C4.90525 10.15 4.77272 10.8977 4.77272 11.6667C4.77272 12.4356 4.90525 13.1833 5.13858 13.8833Z" fill="#DB8300"/>
</svg>
