<?xml version="1.0" encoding="UTF-8"?>
<svg width="120px" height="120px" viewBox="0 0 120 120" version="1.1" xmlns="http://www.w3.org/2000/svg" xmlns:xlink="http://www.w3.org/1999/xlink">
    <title>solscan-icon</title>
    <g id="页面-1" stroke="none" stroke-width="1" fill="none" fill-rule="evenodd">
        <g id="返佣-返佣记录-点击返佣记录弹层" transform="translate(-561, -2148)">
            <g id="solscan-icon" transform="translate(561, 2148)">
                <path d="M27.5127088,20 L105.991921,20 C107.83287,20 109.325255,21.4923842 109.325255,23.3333333 C109.325255,24.2768712 108.925381,25.1762084 108.224826,25.8082574 L94.0454503,38.6010502 C93.4329992,39.1536104 92.637421,39.4594595 91.8125458,39.4594595 L13.3333333,39.4594595 C11.4923842,39.4594595 10,37.9670753 10,36.1261261 C10,35.1825883 10.3998736,34.2832511 11.1004289,33.6512021 L25.2798044,20.8584093 C25.815699,20.3749191 26.4918004,20.0803171 27.2050543,20.0142212 L27.5127088,20 Z M27.5127088,80.5405405 L105.991921,80.5405405 C107.83287,80.5405405 109.325255,82.0329247 109.325255,83.8738739 C109.325255,84.8174117 108.925381,85.7167489 108.224826,86.3487979 L94.0454503,99.1415907 C93.4329992,99.6941509 92.637421,100 91.8125458,100 L13.3333333,100 C11.4923842,100 10,98.5076158 10,96.6666667 C10,95.7231288 10.3998736,94.8237916 11.1004289,94.1917426 L25.2798044,81.3989498 C25.8922554,80.8463896 26.6878336,80.5405405 27.5127088,80.5405405 Z M91.8125458,50.2702703 L13.3333333,50.2702703 C11.4923842,50.2702703 10,51.7626544 10,53.6036036 C10,54.5471414 10.3998736,55.4464787 11.1004289,56.0785276 L25.2798044,68.8713204 C25.8922554,69.4238807 26.6878336,69.7297297 27.5127088,69.7297297 L105.991921,69.7297297 C107.83287,69.7297297 109.325255,68.2373456 109.325255,66.3963964 C109.325255,65.4528586 108.925381,64.5535213 108.224826,63.9214724 L94.0454503,51.1286796 C93.4329992,50.5761193 92.637421,50.2702703 91.8125458,50.2702703 Z" id="形状结合" fill="#1A1A1A"></path>
                <rect id="矩形" x="0" y="0" width="120" height="120"></rect>
            </g>
        </g>
    </g>
</svg>