<svg height="16" viewBox="0 0 17 16" width="17" xmlns="http://www.w3.org/2000/svg">
    <path
        d="M0.818359 6.54688H1.77539C2.47949 3.30664 5.38477 0.845703 8.83008 0.845703C12.7949 0.845703 16.0488 4.10645 16.0488 8.06445C16.0488 12.0293 12.7949 15.29 8.83008 15.29C6.76562 15.29 4.63281 14.2783 3.42969 12.7812C3.01953 12.3096 3.04688 11.7559 3.42969 11.4414C3.84668 11.0859 4.37988 11.209 4.7627 11.5986C5.76758 12.7676 7.18945 13.4854 8.83008 13.4922C11.8379 13.499 14.251 11.0723 14.251 8.06445C14.251 5.06348 11.8379 2.65039 8.83008 2.65039C6.35547 2.65039 4.27734 4.28418 3.62109 6.54688H4.60547C5.20703 6.54688 5.35059 7.07324 5.0293 7.50391L3.14941 10.0195C2.91699 10.334 2.50684 10.3408 2.27441 10.0195L0.387695 7.50391C0.0595703 7.07324 0.209961 6.54688 0.818359 6.54688ZM8.83008 11.8037C8.65918 11.8037 8.53613 11.6807 8.53613 11.5029V11.0723C7.47656 10.9971 6.79297 10.4707 6.59473 9.8418C6.56055 9.73926 6.54004 9.65039 6.54004 9.56152C6.54004 9.2334 6.75879 9.00781 7.12793 9.00781C7.4082 9.00781 7.59277 9.15137 7.71582 9.41113C7.81836 9.73242 8.07812 9.96484 8.53613 10.0332V8.57031L8.32422 8.52246C7.18262 8.26953 6.58105 7.74316 6.58105 6.82715C6.58105 5.83594 7.39453 5.16602 8.53613 5.07031V4.63281C8.53613 4.45508 8.65918 4.33203 8.83008 4.33203C8.99414 4.33203 9.12402 4.45508 9.12402 4.63281V5.07031C10.1016 5.16602 10.7715 5.66504 10.9629 6.32129C10.9902 6.41016 11.0107 6.49902 11.0107 6.59473C11.0107 6.90234 10.7852 7.10742 10.4434 7.10742C10.1631 7.10742 9.98535 6.9707 9.8418 6.71777C9.71875 6.39648 9.47266 6.19141 9.12402 6.12305V7.51758L9.36328 7.56543C10.5527 7.79785 11.1475 8.32422 11.1475 9.26074C11.1475 10.3135 10.3135 10.9766 9.12402 11.0723V11.5029C9.12402 11.6807 8.99414 11.8037 8.83008 11.8037ZM8.53613 7.37402V6.11621C8.09863 6.1709 7.8252 6.41699 7.8252 6.73828C7.8252 7.03906 8.03711 7.2373 8.48828 7.36035L8.53613 7.37402ZM9.12402 8.70703V10.0332C9.63672 9.97168 9.91016 9.72559 9.91016 9.37695C9.91016 9.04883 9.71875 8.85742 9.21973 8.72754L9.12402 8.70703Z"
        fill="#000" />
</svg>
