<svg width="17" height="17" viewBox="0 0 17 17" fill="none" xmlns="http://www.w3.org/2000/svg">
<path d="M8.46875 16.4297C4.01562 16.4297 0.398438 12.8125 0.398438 8.35938C0.398438 3.90625 4.01562 0.289062 8.46875 0.289062C12.9219 0.289062 16.5391 3.90625 16.5391 8.35938C16.5391 12.8125 12.9219 16.4297 8.46875 16.4297ZM8.46875 14.8359C12.0547 14.8359 14.9531 11.9453 14.9531 8.35938C14.9531 4.77344 12.0547 1.875 8.46875 1.875C4.88281 1.875 1.98438 4.77344 1.98438 8.35938C1.98438 11.9453 4.88281 14.8359 8.46875 14.8359ZM4.72656 12.2109C4.72656 12.0156 4.88281 11.8594 5.07812 11.8594H5.35938V4.95312C5.35938 4.30469 5.70312 3.94531 6.35156 3.94531H9.46094C10.1094 3.94531 10.4688 4.30469 10.4688 4.95312V7.0625C11.1641 7.33594 11.4453 7.83594 11.4453 8.46875C11.4453 9.15625 11.3594 9.89062 11.3594 10.4531C11.3594 10.8203 11.5703 11.0391 11.9219 11.0391C12.3047 11.0391 12.5234 10.7578 12.5234 10.2266C12.5234 9.47656 12.3984 8.53906 12.1641 7.46875L11.4375 6.69531C11.2891 6.53906 11.2734 6.42188 11.3672 6.25L11.6875 5.65625C11.7188 5.60156 11.7109 5.54688 11.6797 5.50781L11.1406 4.83594C10.9062 4.54688 11.3281 4.23438 11.5469 4.50781L11.9766 5.04688C12.2031 5.32812 12.3281 5.64844 12.3984 6.02344L12.4844 6.42188C12.8438 8.14844 13.0312 9.26562 13.0312 10.2266C13.0312 11.0703 12.625 11.5469 11.9219 11.5469C11.2656 11.5469 10.8516 11.1328 10.8516 10.4531C10.8516 9.82031 10.9375 9.07812 10.9375 8.46875C10.9375 8.11719 10.7969 7.82812 10.4688 7.625V11.8594H10.7344C10.9297 11.8594 11.0938 12.0234 11.0938 12.2109C11.0938 12.4141 10.9297 12.5781 10.7344 12.5781H5.07812C4.88281 12.5781 4.72656 12.4141 4.72656 12.2109ZM6.49219 7.44531H9.32812C9.59375 7.44531 9.76562 7.28906 9.76562 7.04688V5.05469C9.76562 4.80469 9.60156 4.64844 9.32812 4.64844H6.49219C6.21875 4.64844 6.05469 4.80469 6.05469 5.05469V7.04688C6.05469 7.28906 6.21875 7.44531 6.49219 7.44531Z" fill="#000"/>
</svg>
