<svg fill="none" height="37" viewBox="0 0 38 37" width="38" xmlns="http://www.w3.org/2000/svg">
    <path
        d="M18.9824 36.9414C16.498 36.9414 14.1602 36.4668 11.9688 35.5176C9.77734 34.5801 7.84375 33.2734 6.16797 31.5977C4.50391 29.9219 3.19727 27.9883 2.24805 25.7969C1.29883 23.6055 0.824219 21.2676 0.824219 18.7832C0.824219 16.2988 1.29883 13.9609 2.24805 11.7695C3.19727 9.57812 4.50391 7.65039 6.16797 5.98633C7.84375 4.31055 9.77148 2.99805 11.9512 2.04883C14.1426 1.09961 16.4805 0.625 18.9648 0.625C21.4609 0.625 23.8047 1.09961 25.9961 2.04883C28.1875 2.99805 30.1211 4.31055 31.7969 5.98633C33.4727 7.65039 34.7852 9.57812 35.7344 11.7695C36.6836 13.9609 37.1582 16.2988 37.1582 18.7832C37.1582 21.2676 36.6836 23.6055 35.7344 25.7969C34.7852 27.9883 33.4727 29.9219 31.7969 31.5977C30.1211 33.2734 28.1875 34.5801 25.9961 35.5176C23.8047 36.4668 21.4668 36.9414 18.9824 36.9414ZM19.457 30.1562C19.832 30.1562 20.1543 30.0156 20.4238 29.7344C20.7051 29.4531 20.9336 29.0781 21.1094 28.6094L27.7188 11.3828C27.8828 10.9258 27.9648 10.5391 27.9648 10.2227C27.9648 9.87109 27.8594 9.5957 27.6484 9.39648C27.4492 9.18555 27.1797 9.08008 26.8398 9.08008C26.5117 9.08008 26.1191 9.16797 25.6621 9.34375L8.36523 15.9707C7.95508 16.1348 7.60352 16.3516 7.31055 16.6211C7.0293 16.8789 6.88867 17.207 6.88867 17.6055C6.88867 18.0625 7.04102 18.4023 7.3457 18.625C7.66211 18.8477 8.06641 19.0352 8.55859 19.1875L13.7617 20.752C14.1133 20.8574 14.4004 20.9043 14.623 20.8926C14.8574 20.8691 15.0977 20.752 15.3438 20.541L26.418 10.2402C26.5586 10.123 26.6934 10.1172 26.8223 10.2227C26.9629 10.3398 26.9629 10.4746 26.8223 10.627L16.5742 21.7539C16.3633 21.9766 16.2344 22.2051 16.1875 22.4395C16.1523 22.6738 16.1875 22.9727 16.293 23.3359L17.8398 28.3984C18.0039 28.9141 18.1914 29.3359 18.4023 29.6641C18.625 29.9922 18.9766 30.1562 19.457 30.1562Z"
        fill="#007AFF" />
</svg>
