<svg fill="none" height="37" viewBox="0 0 38 37" width="38" xmlns="http://www.w3.org/2000/svg">
    <path
        d="M18.9824 36.4668C16.498 36.4668 14.1602 35.9922 11.9688 35.043C9.77734 34.1055 7.84375 32.7988 6.16797 31.123C4.50391 29.4473 3.19727 27.5137 2.24805 25.3223C1.29883 23.1309 0.824219 20.793 0.824219 18.3086C0.824219 15.8242 1.29883 13.4863 2.24805 11.2949C3.19727 9.10352 4.50391 7.17578 6.16797 5.51172C7.84375 3.83594 9.77148 2.52344 11.9512 1.57422C14.1426 0.625 16.4805 0.150391 18.9648 0.150391C21.4609 0.150391 23.8047 0.625 25.9961 1.57422C28.1875 2.52344 30.1211 3.83594 31.7969 5.51172C33.4727 7.17578 34.7852 9.10352 35.7344 11.2949C36.6836 13.4863 37.1582 15.8242 37.1582 18.3086C37.1582 20.793 36.6836 23.1309 35.7344 25.3223C34.7852 27.5137 33.4727 29.4473 31.7969 31.123C30.1211 32.7988 28.1875 34.1055 25.9961 35.043C23.8047 35.9922 21.4668 36.4668 18.9824 36.4668ZM19.0176 8.92188C18.5488 8.92188 18.1562 9.07422 17.8398 9.37891C17.5234 9.67188 17.3652 10.0527 17.3652 10.5215V19.0996L17.541 22.8613L15.9062 20.8223L13.8672 18.6953C13.5742 18.3789 13.2051 18.2207 12.7598 18.2207C12.3262 18.2207 11.9629 18.3613 11.6699 18.6426C11.3887 18.9238 11.248 19.2754 11.248 19.6973C11.248 20.1426 11.3945 20.5117 11.6875 20.8047L17.7168 26.9219C18.1035 27.332 18.5371 27.5371 19.0176 27.5371C19.4863 27.5371 19.9199 27.332 20.3184 26.9219L26.3477 20.8047C26.6406 20.5 26.7871 20.1309 26.7871 19.6973C26.7871 19.2754 26.6406 18.9238 26.3477 18.6426C26.0547 18.3613 25.6914 18.2207 25.2578 18.2207C24.8008 18.2207 24.4316 18.3789 24.1504 18.6953L22.1289 20.8047L20.4766 22.8789L20.6348 19.0996V10.5215C20.6348 10.0527 20.4824 9.67188 20.1777 9.37891C19.873 9.07422 19.4863 8.92188 19.0176 8.92188Z"
        fill="#34C759" />
</svg>
