<svg width="17" height="17" viewBox="0 0 17 17" fill="none" xmlns="http://www.w3.org/2000/svg">
<path d="M8.46875 16.4297C4.01562 16.4297 0.398438 12.8125 0.398438 8.35938C0.398438 3.90625 4.01562 0.289062 8.46875 0.289062C12.9219 0.289062 16.5391 3.90625 16.5391 8.35938C16.5391 12.8125 12.9219 16.4297 8.46875 16.4297ZM8.46875 14.8359C12.0547 14.8359 14.9531 11.9453 14.9531 8.35938C14.9531 4.77344 12.0547 1.875 8.46875 1.875C4.88281 1.875 1.98438 4.77344 1.98438 8.35938C1.98438 11.9453 4.88281 14.8359 8.46875 14.8359ZM5.66406 12.1562C4.78906 12.1562 4.33594 11.7109 4.33594 10.8438V5.875C4.33594 5.00781 4.78906 4.5625 5.66406 4.5625H11.2578C12.1328 4.5625 12.5859 5.01562 12.5859 5.875V10.8438C12.5859 11.7109 12.1328 12.1562 11.2578 12.1562H5.66406ZM5.65625 11.3438H11.2656C11.6016 11.3438 11.7734 11.1875 11.7734 10.8359V7.0625C11.7734 6.70312 11.5859 6.52344 11.2344 6.52344H5.67969C5.33594 6.52344 5.15625 6.70312 5.15625 7.0625V10.8359C5.15625 11.1875 5.32031 11.3438 5.65625 11.3438ZM7.65625 8.00781C7.47656 8.00781 7.42188 7.95312 7.42188 7.78906V7.5C7.42188 7.32031 7.47656 7.26562 7.65625 7.26562H7.9375C8.10938 7.26562 8.17188 7.32031 8.17188 7.5V7.78906C8.17188 7.95312 8.10938 8.00781 7.9375 8.00781H7.65625ZM8.99219 8.00781C8.8125 8.00781 8.75781 7.95312 8.75781 7.78906V7.5C8.75781 7.32031 8.8125 7.26562 8.99219 7.26562H9.27344C9.45312 7.26562 9.50781 7.32031 9.50781 7.5V7.78906C9.50781 7.95312 9.45312 8.00781 9.27344 8.00781H8.99219ZM10.3281 8.00781C10.1484 8.00781 10.0859 7.95312 10.0859 7.78906V7.5C10.0859 7.32031 10.1484 7.26562 10.3281 7.26562H10.6016C10.7812 7.26562 10.8438 7.32031 10.8438 7.5V7.78906C10.8438 7.95312 10.7812 8.00781 10.6016 8.00781H10.3281ZM6.32031 9.32031C6.14844 9.32031 6.08594 9.26562 6.08594 9.09375V8.8125C6.08594 8.63281 6.14844 8.57812 6.32031 8.57812H6.60156C6.78125 8.57812 6.83594 8.63281 6.83594 8.8125V9.09375C6.83594 9.26562 6.78125 9.32031 6.60156 9.32031H6.32031ZM7.65625 9.32031C7.47656 9.32031 7.42188 9.26562 7.42188 9.09375V8.8125C7.42188 8.63281 7.47656 8.57812 7.65625 8.57812H7.9375C8.10938 8.57812 8.17188 8.63281 8.17188 8.8125V9.09375C8.17188 9.26562 8.10938 9.32031 7.9375 9.32031H7.65625ZM8.99219 9.32031C8.8125 9.32031 8.75781 9.26562 8.75781 9.09375V8.8125C8.75781 8.63281 8.8125 8.57812 8.99219 8.57812H9.27344C9.45312 8.57812 9.50781 8.63281 9.50781 8.8125V9.09375C9.50781 9.26562 9.45312 9.32031 9.27344 9.32031H8.99219ZM10.3281 9.32031C10.1484 9.32031 10.0859 9.26562 10.0859 9.09375V8.8125C10.0859 8.63281 10.1484 8.57812 10.3281 8.57812H10.6016C10.7812 8.57812 10.8438 8.63281 10.8438 8.8125V9.09375C10.8438 9.26562 10.7812 9.32031 10.6016 9.32031H10.3281ZM6.32031 10.6406C6.14844 10.6406 6.08594 10.5781 6.08594 10.4062V10.1172C6.08594 9.94531 6.14844 9.89062 6.32031 9.89062H6.60156C6.78125 9.89062 6.83594 9.94531 6.83594 10.1172V10.4062C6.83594 10.5781 6.78125 10.6406 6.60156 10.6406H6.32031ZM7.65625 10.6406C7.47656 10.6406 7.42188 10.5781 7.42188 10.4062V10.1172C7.42188 9.94531 7.47656 9.89062 7.65625 9.89062H7.9375C8.10938 9.89062 8.17188 9.94531 8.17188 10.1172V10.4062C8.17188 10.5781 8.10938 10.6406 7.9375 10.6406H7.65625ZM8.99219 10.6406C8.8125 10.6406 8.75781 10.5781 8.75781 10.4062V10.1172C8.75781 9.94531 8.8125 9.89062 8.99219 9.89062H9.27344C9.45312 9.89062 9.50781 9.94531 9.50781 10.1172V10.4062C9.50781 10.5781 9.45312 10.6406 9.27344 10.6406H8.99219Z" fill="#000"/>
</svg>
