<svg fill="none" height="28" viewBox="0 0 28 28" width="28" xmlns="http://www.w3.org/2000/svg">
    <path
        d="M14 22.9443C19.0977 22.9443 23.2812 18.752 23.2812 13.6543C23.2812 8.56543 19.0889 4.37305 14 4.37305C8.90234 4.37305 4.71875 8.56543 4.71875 13.6543C4.71875 18.752 8.91113 22.9443 14 22.9443ZM14 20.6328C10.1416 20.6328 7.03906 17.5215 7.03906 13.6543C7.03906 9.7959 10.1328 6.68457 14 6.68457C17.8584 6.68457 20.9697 9.7959 20.9697 13.6543C20.9785 17.5215 17.8672 20.6328 14 20.6328ZM13.0771 17.8379C13.4375 17.8379 13.7627 17.6533 13.9736 17.3369L17.7441 11.5098C17.8848 11.2988 17.9814 11.0791 17.9814 10.8682C17.9814 10.3496 17.5244 9.98926 17.0322 9.98926C16.707 9.98926 16.4258 10.165 16.2148 10.5166L13.0596 15.5967L11.5918 13.7949C11.3721 13.5225 11.1348 13.4082 10.8447 13.4082C10.335 13.4082 9.92188 13.8125 9.92188 14.3223C9.92188 14.5684 10.001 14.7793 10.1855 15.0078L12.1543 17.3545C12.4092 17.6709 12.708 17.8379 13.0771 17.8379Z"
        fill="#0E76FD" />
</svg>
