<svg height="16" viewBox="0 0 15 16" width="15" xmlns="http://www.w3.org/2000/svg">
    <path
        d="M7.44238 15.29C3.48438 15.29 0.223633 12.0293 0.223633 8.06445C0.223633 4.10645 3.47754 0.845703 7.44238 0.845703C11.4004 0.845703 14.6611 4.10645 14.6611 8.06445C14.6611 12.0293 11.4072 15.29 7.44238 15.29ZM7.44238 13.4922C10.4502 13.4922 12.8633 11.0723 12.8633 8.06445C12.8633 5.06348 10.4434 2.64355 7.44238 2.64355C4.43457 2.64355 2.02832 5.06348 2.02832 8.06445C2.02832 11.0723 4.44141 13.4922 7.44238 13.4922ZM5.7334 11.3252C5.34375 11.3252 5.09766 11.0244 5.17285 10.6416L5.37109 9.6709H5.00879C4.70117 9.6709 4.48926 9.45215 4.48926 9.13086C4.48926 8.76172 4.75586 8.49512 5.13184 8.49512H5.61035L5.81543 7.51758H5.43945C5.13867 7.51758 4.92676 7.29199 4.92676 6.9707C4.92676 6.60156 5.18652 6.33496 5.56934 6.33496H6.04102L6.24609 5.32324C6.31445 4.94727 6.54004 4.7627 6.91602 4.7627C7.29883 4.7627 7.55859 5.07715 7.4834 5.44629L7.29883 6.33496H8.22852L8.42676 5.32324C8.49512 4.94727 8.73438 4.7627 9.10352 4.7627C9.47949 4.7627 9.74609 5.07715 9.6709 5.44629L9.49316 6.33496H9.8623C10.1699 6.33496 10.3818 6.55371 10.3818 6.88184C10.3818 7.24414 10.1152 7.51758 9.73926 7.51758H9.26758L9.06934 8.49512H9.4248C9.73242 8.49512 9.94434 8.71387 9.94434 9.03516C9.94434 9.4043 9.67773 9.6709 9.30176 9.6709H8.83008L8.59766 10.7578C8.5293 11.1338 8.29004 11.3252 7.90723 11.3252C7.51758 11.3252 7.27832 11.0312 7.35352 10.6484L7.54492 9.67773H6.63574L6.41016 10.7646C6.33496 11.1406 6.11621 11.3252 5.7334 11.3252ZM6.75195 8.65918H7.87305L8.11914 7.4082H7.00488L6.75195 8.65918Z"
        fill="#000" />
</svg>
