<svg height="17" viewBox="0 0 15 17" width="15" xmlns="http://www.w3.org/2000/svg">
    <path
        d="M0.223633 9.06445C0.223633 7 1.22852 4.85352 2.72559 3.66406C3.2041 3.25391 3.75098 3.28125 4.07227 3.66406C4.42773 4.08105 4.29785 4.60742 3.9082 4.99707C2.74609 6.00879 2.02832 7.42383 2.02148 9.06445C2.01465 12.0723 4.44141 14.4854 7.44238 14.4854C10.4502 14.4854 12.8633 12.0723 12.8633 9.06445C12.8633 6.59668 11.2363 4.53906 8.99414 3.88281V4.72363C8.99414 5.31836 8.52246 5.46191 8.0166 5.11328L5.52148 3.4248C5.11133 3.14453 5.10449 2.65234 5.52148 2.37891L8.0166 0.69043C8.5293 0.348633 8.99414 0.499023 8.99414 1.08008V2.02344C12.2207 2.73438 14.6611 5.63281 14.6611 9.06445C14.6611 13.0293 11.4072 16.2832 7.44238 16.2832C3.48438 16.2832 0.223633 13.0293 0.223633 9.06445ZM6.75195 12.3184C6.45801 12.3184 6.23242 12.1885 6.02734 11.9424L4.50293 10.1172C4.35938 9.93945 4.29102 9.77539 4.29102 9.58398C4.29102 9.1875 4.61914 8.87305 5.00879 8.87305C5.24121 8.87305 5.42578 8.96191 5.59668 9.17383L6.73145 10.5752L9.18555 6.62402C9.35645 6.35059 9.56836 6.21387 9.82129 6.21387C10.2041 6.21387 10.5596 6.49414 10.5596 6.89746C10.5596 7.06152 10.4912 7.23242 10.3818 7.39648L7.44238 11.9287C7.28516 12.1748 7.03223 12.3184 6.75195 12.3184Z"
        fill="#000" />
</svg>
