<svg height="36" id="vector" viewBox="0 0 36 36" width="36" xmlns="http://www.w3.org/2000/svg">
    <path
        d="M13.704,13.926H17.852C18.098,13.926 18.297,13.727 18.297,13.482C18.297,13.236 18.098,13.037 17.852,13.037H13.704C13.458,13.037 13.259,13.236 13.259,13.482C13.259,13.727 13.458,13.926 13.704,13.926V13.926ZM13.259,17.926C13.259,18.172 13.458,18.371 13.704,18.371H22.593C22.839,18.371 23.038,18.172 23.038,17.926C23.038,17.681 22.839,17.482 22.593,17.482H13.704C13.458,17.482 13.259,17.681 13.259,17.926V17.926ZM21.853,8H11.185C10.531,8 10,8.531 10,9.185V26.668C10,27.322 10.531,27.853 11.185,27.853H25.408C26.063,27.853 26.593,27.322 26.593,26.668V13.037L21.853,8V8ZM21.853,9.185L25.408,13.037H22.445C22.118,13.037 21.853,12.772 21.853,12.445V9.185ZM25.408,26.075C25.408,26.402 25.143,26.668 24.816,26.668H11.778C11.45,26.668 11.185,26.402 11.185,26.075V9.778C11.185,9.451 11.451,9.185 11.778,9.185H20.963V12.741C20.963,13.396 21.494,13.926 22.149,13.926H25.408V26.075H25.408H25.408ZM22.593,22.223H13.704C13.458,22.223 13.259,22.422 13.259,22.667C13.259,22.913 13.458,23.112 13.704,23.112H22.593C22.839,23.112 23.038,22.913 23.038,22.667C23.038,22.422 22.839,22.223 22.593,22.223Z"
        fill="#F9A825" />
</svg>