<svg width="24" height="24" viewBox="0 0 24 24" fill="none" xmlns="http://www.w3.org/2000/svg">
<path d="M10.425 13.5749H5.72499C5.29166 13.5749 4.92083 13.4207 4.61249 13.1124C4.30416 12.8041 4.14999 12.4332 4.14999 11.9999C4.14999 11.5666 4.30416 11.1957 4.61249 10.8874C4.92083 10.5791 5.29166 10.4249 5.72499 10.4249H10.425V5.7249C10.425 5.29157 10.5792 4.92074 10.8875 4.6124C11.1958 4.30407 11.5667 4.1499 12 4.1499C12.4333 4.1499 12.8042 4.30407 13.1125 4.6124C13.4208 4.92074 13.575 5.29157 13.575 5.7249V10.4249H18.275C18.7083 10.4249 19.0792 10.5791 19.3875 10.8874C19.6958 11.1957 19.85 11.5666 19.85 11.9999C19.85 12.4332 19.6958 12.8041 19.3875 13.1124C19.0792 13.4207 18.7083 13.5749 18.275 13.5749H13.575V18.2749C13.575 18.7082 13.4208 19.0791 13.1125 19.3874C12.8042 19.6957 12.4333 19.8499 12 19.8499C11.5667 19.8499 11.1958 19.6957 10.8875 19.3874C10.5792 19.0791 10.425 18.7082 10.425 18.2749V13.5749Z" fill="#FF9500"/>
</svg>
