<svg width="12" height="15" viewBox="0 0 12 15" fill="none" xmlns="http://www.w3.org/2000/svg">
<g clip-path="url(#clip0_203_1670)">
<path d="M11 13.7223C11 14.1141 10.8694 14.4265 10.6081 14.6593C10.3526 14.8864 10.0034 15 9.56045 15H-9.54517C-10.59 15 -11.3822 14.7331 -11.9217 14.1993C-12.4668 13.6599 -12.7394 12.8705 -12.7394 11.8313V3.16865C-12.7394 2.13515 -12.4668 1.34867 -11.9217 0.809199C-11.3822 0.269733 -10.59 0 -9.54517 0H9.56045C10.0034 0 10.3526 0.116411 10.6081 0.349233C10.8694 0.576377 11 0.8887 11 1.2862C11 1.55309 10.9176 1.80011 10.753 2.02726C10.594 2.24872 10.3129 2.56956 9.90968 2.98978L5.4889 7.41056C5.42643 7.47303 5.42643 7.53265 5.4889 7.58944L9.90968 12.0187C10.3129 12.4333 10.594 12.7541 10.753 12.9813C10.9176 13.2084 11 13.4554 11 13.7223Z" fill="#FF9500"/>
</g>
<defs>
<clipPath id="clip0_203_1670">
<rect width="12" height="15" fill="white"/>
</clipPath>
</defs>
</svg>
