<svg fill="none" height="34" viewBox="0 0 34 34" width="34" xmlns="http://www.w3.org/2000/svg">
    <rect fill="#AF52DE" height="34" rx="17" width="34" />
    <path
        d="M17.0293 24.1899C16.8901 24.1899 16.6924 24.1387 16.502 24.0361C12.3418 21.8022 10.8696 20.7256 10.8696 18.1035V12.7056C10.8696 11.7754 11.2065 11.4165 12.0049 11.0869C12.7666 10.772 15.4253 9.83447 16.165 9.6001C16.436 9.51953 16.751 9.46094 17.0293 9.46094C17.3003 9.46094 17.6226 9.51953 17.8936 9.6001C18.626 9.8418 21.292 10.772 22.0537 11.0869C22.8447 11.4238 23.1816 11.7754 23.1816 12.7056V18.1035C23.1816 20.7256 21.7681 21.8975 17.5493 24.0361C17.3589 24.1313 17.1685 24.1899 17.0293 24.1899ZM16.2163 20.1104C16.5093 20.1104 16.7656 19.9639 16.9414 19.7002L20.3618 14.4194C20.4717 14.251 20.5522 14.0605 20.5522 13.8848C20.5522 13.4673 20.1934 13.189 19.7979 13.189C19.5415 13.189 19.3218 13.3281 19.146 13.6064L16.1943 18.3159L14.8394 16.6167C14.6489 16.3823 14.4585 16.2871 14.2168 16.2871C13.8066 16.2871 13.4844 16.6167 13.4844 17.0269C13.4844 17.2246 13.5503 17.4004 13.6968 17.5835L15.4619 19.7075C15.6743 19.9785 15.916 20.1104 16.2163 20.1104Z"
        fill="white" />
</svg>
