<svg width="25" height="24" viewBox="0 0 25 24" fill="none" xmlns="http://www.w3.org/2000/svg">
<path d="M22.8135 6.16953V17.8305C22.8135 18.5689 22.5565 19.1951 22.0423 19.7093C21.5281 20.2234 20.9019 20.4805 20.1635 20.4805H4.50254C3.76421 20.4805 3.13796 20.2234 2.62379 19.7093C2.10962 19.1951 1.85254 18.5689 1.85254 17.8305V6.16953C1.85254 5.4312 2.10962 4.80495 2.62379 4.29078C3.13796 3.77661 3.76421 3.51953 4.50254 3.51953H20.1635C20.9019 3.51953 21.5281 3.77661 22.0423 4.29078C22.5565 4.80495 22.8135 5.4312 22.8135 6.16953ZM4.50254 7.95753H20.1635V6.16953H4.50254V7.95753ZM4.50254 11.9575V17.8305H20.1635V11.9575H4.50254Z" fill="#FF9500"/>
</svg>
