<svg width="24" height="24" viewBox="0 0 24 24" fill="none" xmlns="http://www.w3.org/2000/svg">
<path d="M15.675 9.7998L7.75001 17.7248C7.43335 18.0415 7.06668 18.1956 6.65001 18.1873C6.23335 18.179 5.86668 18.0165 5.55001 17.6998C5.23335 17.3831 5.07501 17.0123 5.07501 16.5873C5.07501 16.1623 5.23335 15.7915 5.55001 15.4748L13.45 7.5748H7.25001C6.81668 7.5748 6.44585 7.42064 6.13751 7.1123C5.82918 6.80397 5.67501 6.43314 5.67501 5.9998C5.67501 5.56647 5.82918 5.19564 6.13751 4.8873C6.44585 4.57897 6.81668 4.4248 7.25001 4.4248H17.25C17.6833 4.4248 18.0542 4.57897 18.3625 4.8873C18.6708 5.19564 18.825 5.56647 18.825 5.9998V15.9998C18.825 16.4331 18.6708 16.804 18.3625 17.1123C18.0542 17.4206 17.6833 17.5748 17.25 17.5748C16.8167 17.5748 16.4458 17.4206 16.1375 17.1123C15.8292 16.804 15.675 16.4331 15.675 15.9998V9.7998Z" fill="#FF9500"/>
</svg>
