<svg width="24" height="24" viewBox="0 0 24 24" fill="none" xmlns="http://www.w3.org/2000/svg">
<path d="M2.72499 7.3749C2.29166 7.3749 1.92083 7.22074 1.61249 6.9124C1.30416 6.60407 1.14999 6.23324 1.14999 5.7999V2.7249C1.14999 2.29157 1.30416 1.92074 1.61249 1.6124C1.92083 1.30407 2.29166 1.1499 2.72499 1.1499H5.79999C6.23333 1.1499 6.60416 1.30407 6.91249 1.6124C7.22083 1.92074 7.37499 2.29157 7.37499 2.7249C7.37499 3.15824 7.22083 3.52907 6.91249 3.8374C6.60416 4.14574 6.23333 4.2999 5.79999 4.2999H4.29999V5.7999C4.29999 6.23324 4.14583 6.60407 3.83749 6.9124C3.52916 7.22074 3.15833 7.3749 2.72499 7.3749ZM2.72499 22.8499C2.29166 22.8499 1.92083 22.6957 1.61249 22.3874C1.30416 22.0791 1.14999 21.7082 1.14999 21.2749V18.1999C1.14999 17.7666 1.30416 17.3957 1.61249 17.0874C1.92083 16.7791 2.29166 16.6249 2.72499 16.6249C3.15833 16.6249 3.52916 16.7791 3.83749 17.0874C4.14583 17.3957 4.29999 17.7666 4.29999 18.1999V19.6999H5.79999C6.23333 19.6999 6.60416 19.8541 6.91249 20.1624C7.22083 20.4707 7.37499 20.8416 7.37499 21.2749C7.37499 21.7082 7.22083 22.0791 6.91249 22.3874C6.60416 22.6957 6.23333 22.8499 5.79999 22.8499H2.72499ZM18.2 22.8499C17.7667 22.8499 17.3958 22.6957 17.0875 22.3874C16.7792 22.0791 16.625 21.7082 16.625 21.2749C16.625 20.8416 16.7792 20.4707 17.0875 20.1624C17.3958 19.8541 17.7667 19.6999 18.2 19.6999H19.7V18.1999C19.7 17.7666 19.8542 17.3957 20.1625 17.0874C20.4708 16.7791 20.8417 16.6249 21.275 16.6249C21.7083 16.6249 22.0792 16.7791 22.3875 17.0874C22.6958 17.3957 22.85 17.7666 22.85 18.1999V21.2749C22.85 21.7082 22.6958 22.0791 22.3875 22.3874C22.0792 22.6957 21.7083 22.8499 21.275 22.8499H18.2ZM21.275 7.3749C20.8417 7.3749 20.4708 7.22074 20.1625 6.9124C19.8542 6.60407 19.7 6.23324 19.7 5.7999V4.2999H18.2C17.7667 4.2999 17.3958 4.14574 17.0875 3.8374C16.7792 3.52907 16.625 3.15824 16.625 2.7249C16.625 2.29157 16.7792 1.92074 17.0875 1.6124C17.3958 1.30407 17.7667 1.1499 18.2 1.1499H21.275C21.7083 1.1499 22.0792 1.30407 22.3875 1.6124C22.6958 1.92074 22.85 2.29157 22.85 2.7249V5.7999C22.85 6.23324 22.6958 6.60407 22.3875 6.9124C22.0792 7.22074 21.7083 7.3749 21.275 7.3749ZM17.5 18.9999V17.4999H19V18.9999H17.5ZM17.5 15.9999V14.4999H19V15.9999H17.5ZM16 17.4999V15.9999H17.5V17.4999H16ZM14.5 18.9999V17.4999H16V18.9999H14.5ZM13 17.4999V15.9999H14.5V17.4999H13ZM16 14.4999V12.9999H17.5V14.4999H16ZM14.5 15.9999V14.4999H16V15.9999H14.5ZM13 14.4999V12.9999H14.5V14.4999H13ZM14.575 10.9999C14.1417 10.9999 13.7708 10.8457 13.4625 10.5374C13.1542 10.2291 13 9.85824 13 9.4249V6.5749C13 6.14157 13.1542 5.77074 13.4625 5.4624C13.7708 5.15407 14.1417 4.9999 14.575 4.9999H17.425C17.8583 4.9999 18.2292 5.15407 18.5375 5.4624C18.8458 5.77074 19 6.14157 19 6.5749V9.4249C19 9.85824 18.8458 10.2291 18.5375 10.5374C18.2292 10.8457 17.8583 10.9999 17.425 10.9999H14.575ZM6.57499 18.9999C6.14166 18.9999 5.77083 18.8457 5.46249 18.5374C5.15416 18.2291 4.99999 17.8582 4.99999 17.4249V14.5749C4.99999 14.1416 5.15416 13.7707 5.46249 13.4624C5.77083 13.1541 6.14166 12.9999 6.57499 12.9999H9.42499C9.85833 12.9999 10.2292 13.1541 10.5375 13.4624C10.8458 13.7707 11 14.1416 11 14.5749V17.4249C11 17.8582 10.8458 18.2291 10.5375 18.5374C10.2292 18.8457 9.85833 18.9999 9.42499 18.9999H6.57499ZM6.57499 10.9999C6.14166 10.9999 5.77083 10.8457 5.46249 10.5374C5.15416 10.2291 4.99999 9.85824 4.99999 9.4249V6.5749C4.99999 6.14157 5.15416 5.77074 5.46249 5.4624C5.77083 5.15407 6.14166 4.9999 6.57499 4.9999H9.42499C9.85833 4.9999 10.2292 5.15407 10.5375 5.4624C10.8458 5.77074 11 6.14157 11 6.5749V9.4249C11 9.85824 10.8458 10.2291 10.5375 10.5374C10.2292 10.8457 9.85833 10.9999 9.42499 10.9999H6.57499ZM6.87499 17.1249H9.12499V14.8749H6.87499V17.1249ZM6.87499 9.1249H9.12499V6.8749H6.87499V9.1249ZM14.875 9.1249H17.125V6.8749H14.875V9.1249Z" fill="#FF9500"/>
</svg>
