<svg width="24" height="24" viewBox="0 0 24 24" fill="none" xmlns="http://www.w3.org/2000/svg">
<path d="M9.80003 7.60001L11.375 5.00001L9.80003 2.35001C9.5667 2.01668 9.2542 1.85001 8.86253 1.85001C8.47087 1.85001 8.1667 2.01668 7.95003 2.35001L6.12503 5.40001C5.8917 5.78335 5.82503 6.17918 5.92503 6.58751C6.02503 6.99585 6.2667 7.31668 6.65003 7.55001L7.65003 8.15001C8.03337 8.38335 8.4292 8.44585 8.83753 8.33751C9.24587 8.22918 9.5667 7.98335 9.80003 7.60001ZM19.4 16.275L17.85 13.65C17.6167 13.2667 17.5542 12.8667 17.6625 12.45C17.7709 12.0333 18.0167 11.7083 18.4 11.475L19.4 10.9C19.7834 10.6833 20.1792 10.625 20.5875 10.725C20.9959 10.825 21.3167 11.0667 21.55 11.45L22.475 13.025C22.6584 13.3417 22.7584 13.6833 22.775 14.05C22.7917 14.4167 22.7167 14.7667 22.55 15.1C22.3667 15.4667 22.1042 15.7542 21.7625 15.9625C21.4209 16.1708 21.0417 16.275 20.625 16.275H19.4ZM14.95 22.45L13.125 20.625C12.8084 20.3083 12.65 19.9333 12.65 19.5C12.65 19.0667 12.8084 18.6917 13.125 18.375L14.95 16.55C15.2 16.3 15.4875 16.2417 15.8125 16.375C16.1375 16.5083 16.3 16.75 16.3 17.1V17.35H21.425L19.85 20.475C19.6667 20.8417 19.4 21.1292 19.05 21.3375C18.7 21.5458 18.325 21.65 17.925 21.65H16.3V21.9C16.3 22.25 16.1375 22.4917 15.8125 22.625C15.4875 22.7583 15.2 22.7 14.95 22.45ZM5.87503 21.65C5.52503 21.65 5.2042 21.5583 4.91253 21.375C4.62087 21.1917 4.40003 20.9417 4.25003 20.625C4.1167 20.3417 4.05003 20.0458 4.05003 19.7375C4.05003 19.4292 4.13337 19.1333 4.30003 18.85L5.22503 17.35H8.27503C8.70837 17.35 9.0792 17.5042 9.38753 17.8125C9.69587 18.1208 9.85003 18.4917 9.85003 18.925V20.075C9.85003 20.5083 9.69587 20.8792 9.38753 21.1875C9.0792 21.4958 8.70837 21.65 8.27503 21.65H5.87503ZM3.22503 18.6L1.47503 15.1C1.2917 14.7667 1.21253 14.4208 1.23753 14.0625C1.26253 13.7042 1.3667 13.3583 1.55003 13.025L2.00003 12.275L1.80003 12.15C1.50003 11.9667 1.37503 11.7 1.42503 11.35C1.47503 11 1.6667 10.7833 2.00003 10.7L4.52503 10.075C4.95837 9.97501 5.35837 10.0333 5.72503 10.25C6.0917 10.4667 6.32503 10.7917 6.42503 11.225L7.05003 13.75C7.13337 14.0833 7.03337 14.3542 6.75003 14.5625C6.4667 14.7708 6.17503 14.7833 5.87503 14.6L5.67503 14.475L3.22503 18.6ZM16.225 9.00001L13.725 8.37501C13.3917 8.29168 13.2 8.07501 13.15 7.72501C13.1 7.37501 13.225 7.10835 13.525 6.92501L13.725 6.80001L10.35 1.20001H14.15C14.5334 1.20001 14.8834 1.29585 15.2 1.48751C15.5167 1.67918 15.7834 1.93335 16 2.25001L17.4 4.60001L17.6 4.47501C17.9 4.29168 18.1917 4.30835 18.475 4.52501C18.7584 4.74168 18.8584 5.01668 18.775 5.35001L18.125 7.85001C18.0084 8.28335 17.7709 8.60835 17.4125 8.82501C17.0542 9.04168 16.6584 9.10001 16.225 9.00001Z" fill="#FF9500"/>
</svg>
